<svg width="16" height="16" viewBox="0 0 16 16" fill="none" xmlns="http://www.w3.org/2000/svg">
<path d="M12.2548 2.75489C12.5282 2.48153 12.9717 2.48153 13.2451 2.75489C13.5184 3.02826 13.5184 3.47176 13.2451 3.74513L8.9902 8.00001L13.2451 12.2549L13.3349 12.3652C13.514 12.6369 13.4841 13.006 13.2451 13.2451C13.006 13.4842 12.6368 13.5141 12.3652 13.335L12.2548 13.2451L7.99995 8.99021L3.74506 13.2451C3.4717 13.5185 3.0282 13.5185 2.75483 13.2451C2.48146 12.9718 2.48146 12.5282 2.75483 12.2549L7.00971 8.00001L2.75483 3.74513L2.66499 3.63478C2.48589 3.36311 2.51575 2.99397 2.75483 2.75489C2.99391 2.51582 3.36305 2.48595 3.63471 2.66505L3.74506 2.75489L7.99995 7.00978L12.2548 2.75489Z" fill="black"/>
</svg>
