<svg width="60" height="21" viewBox="0 0 60 21" fill="none" xmlns="http://www.w3.org/2000/svg">
<g clip-path="url(#clip0_9_9)">
<path d="M59.6215 0L16.0032 18.5743C12.3858 20.1048 9.34802 20.87 6.89 20.87C4.10733 20.87 2.0899 19.8961 0.837699 17.9482C0.0492763 16.696 -0.182612 15.1076 0.142032 13.1829C0.466676 11.2582 1.32467 9.20599 2.716 7.02623C3.87544 5.26388 5.77693 2.94499 8.42047 0.0695666C7.49291 1.55366 6.84362 3.08412 6.4726 4.66097C5.77693 7.62914 6.40303 9.8089 8.3509 11.2002C9.27845 11.8495 10.5538 12.1742 12.1771 12.1742C13.4756 12.1742 14.9365 11.9655 16.5598 11.5481L59.6215 0Z" fill="black"/>
</g>
<defs>
<clipPath id="clip0_9_9">
<rect width="59.6186" height="20.87" fill="white"/>
</clipPath>
</defs>
</svg>
