<svg width="20" height="20" viewBox="0 0 20 20" fill="none" xmlns="http://www.w3.org/2000/svg">
<path d="M8.3337 12.6686L8.199 12.6823C7.8962 12.7445 7.6687 13.0125 7.6687 13.3337C7.6689 13.6547 7.8962 13.9229 8.199 13.985L8.3337 13.9987H16.6667C17.0339 13.9987 17.3316 13.7008 17.3318 13.3337C17.3318 12.9664 17.034 12.6686 16.6667 12.6686H8.3337ZM3.3337 6.00163L3.199 6.0153C2.8962 6.07747 2.6687 6.34546 2.6687 6.66667C2.6687 6.98788 2.8962 7.25586 3.199 7.31803L3.3337 7.33171H16.6667C17.034 7.33171 17.3318 7.03394 17.3318 6.66667C17.3318 6.2994 17.034 6.00163 16.6667 6.00163H3.3337Z" fill="black"/>
</svg>
